<svg width="455" height="150" viewBox="0 0 455 150" fill="none" xmlns="http://www.w3.org/2000/svg">
<path d="M145.6 134.4H161.1V130.6H145.6V120H164.5V116.2H141.6V148.6H164.6V144.9H145.6V134.4Z" fill="#070000"/>
<path d="M203.6 142.6L195.3 116.2H191.4L183.2 142.6L174.5 116.2H170.6L181.3 148.6H185.1L193.4 121.2L201.6 148.6H205.5L216 116.2H212.2L203.6 142.6Z" fill="#070000"/>
<path d="M227.1 134.4H242.6V130.6H227.1V120H246V116.2H223.1V148.6H246V144.9H227.1V134.4Z" fill="#070000"/>
<path d="M257 116.2H253V148.6H274.9V144.9H257V116.2Z" fill="#070000"/>
<path d="M303.8 131.6C304.6 130.9 305.2 130.1 305.7 129.1C306.1 128.1 306.4 126.9 306.4 125.5C306.4 123.4 306 121.7 305.1 120.4C304.3 119 303 118 301.4 117.3C299.8 116.6 297.9 116.3 295.6 116.3H281.3V148.6H285.3V135.4H294.6C296.4 135.4 297.9 135.6 298.9 135.9C299.9 136.2 300.7 136.7 301.1 137.5C301.5 138.2 301.8 139.3 301.8 140.6V148.7H305.8V140.6C305.8 138.7 305.5 137.2 304.8 136.3C304.1 135.3 303.1 134.7 301.9 134.3C301 134 299.9 133.8 298.7 133.7C299.5 133.6 300.3 133.4 301 133.2C302.1 132.8 303 132.2 303.8 131.6ZM295.7 131.6H285.4V120H295.7C298 120 299.6 120.5 300.8 121.4C301.9 122.3 302.5 123.7 302.5 125.5C302.5 127.3 301.9 128.8 300.8 130C299.6 131.1 297.9 131.6 295.7 131.6Z" fill="#070000"/>
<path d="M332.5 116.2L323.6 133.4L314.6 116.2H310.1L321.5 137.5V148.6H325.5V137.5L337 116.2H332.5Z" fill="#070000"/>
<path d="M129.7 116.2H122.7V119.8H129.7V137.6C129.7 139.1 129.5 140.4 129 141.6C128.5 142.7 127.8 143.6 126.8 144.3C126.3 144.6 125.9 144.9 125.3 145.1C124.5 145.3 123.7 145.4 122.7 145.4C121.7 145.4 121 145.3 120.1 145.1C119.1 144.9 118.2 144.6 117.3 144.2L117.6 148C117.9 148.1 118.3 148.2 118.7 148.3C118.7 148.3 118.8 148.3 118.8 148.4C120.1 148.8 121.5 149.1 123 149.1C123.2 149.1 123.5 149.1 123.7 149.1C123.8 149.1 123.9 149.1 123.9 149.1C127.4 149.1 129.9 148.3 131.4 146.6C132.9 144.9 133.6 142.5 133.6 139.3V138.8C133.6 138.4 133.6 138.1 133.6 137.7V116.3H131.7H129.7V116.2Z" fill="#070000"/>
<path d="M273.5 0.5C264.1 15.2 247.9 41.1 243.3 48.8C239.8 42.9 229.2 25.5 220.6 11.5L213.8 0.299988H204.5L238.3 55.3C238.5 55.6 238.8 56.5 238.8 57.2V91.5H246.9V57.5C246.9 56.6 247 56.2 247.2 55.8L282.4 0.299988H273.5V0.5Z" fill="#070000"/>
<path d="M7.89999 83.6V0H0V83.6C0 88 3.49999 91.5 7.89999 91.5H58.9V83.7L7.89999 83.6Z" fill="#070000"/>
<path d="M114 0.299988H100.4L69.6 90.5L69.3 91.4H70.3H76.7H77.2L77.4 90.9L88.7 57.7H126.3L137.9 90.9L138.1 91.4H138.6H145.5H146.5L146.2 90.5L114 0.299988ZM91.3 50.2C93.8 42.7 96 35.8 98 29.7C102.2 16.9 105.4 7.40001 107 2.10001C108.3 6.60001 110.9 14 115.1 25.8L115.2 26C117.5 32.5 120.3 40.5 123.7 50.2H91.3Z" fill="#070000"/>
<path d="M168.2 83.4V0.299988H160.4V83.4C160.4 87.8 163.9 91.3 168.3 91.3H219.3V83.5L168.2 83.4Z" fill="#070000"/>
<path d="M358.5 48.2C358.5 62.7 358.5 76.3 359.2 89.6V90H358.5L358.4 89.8C353.5 80.7 330.1 41.9 313 13.5C310.1 8.7 307.4 4.29999 305 0.299988H290.9V91.5H297.9V50.5C297.9 47.7 297.9 45 297.9 42.4C297.9 27.2 297.9 14.1 297.3 2.29999V1.89999H298L298.1 2.10001C302.3 9.10001 317.1 34 331.3 58.1C338.5 70.3 345.6 82.3 351.2 91.6H365.4V0.399994H358.4L358.5 48.2Z" fill="#070000"/>
<path d="M453.7 90.5L421.7 0.299988H408L377.3 90.5L377 91.4H378H384.3H384.8L385 90.9L396.3 57.7H433.9L445.5 90.9L445.7 91.4H446.2H453.1H454.1L453.7 90.5ZM398.9 50.1C401.3 42.8 403.5 36.1 405.5 30.2L405.7 29.6V29.5C409.9 16.7 413 7.3 414.7 2C416 6.5 418.7 14 422.8 25.8C424.9 31.9 427.9 40.2 431.3 50.1H398.9Z" fill="#070000"/>
</svg>
